<svg width="28" height="29" viewBox="0 0 30 31" fill="none" xmlns="http://www.w3.org/2000/svg">
<path d="M12.7413 28.1087H6.30769C4.22302 28.1015 2.5328 26.4985 2.51748 24.5142V12.3328C2.52157 11.6685 2.83385 11.0399 3.37063 10.6154L4.5035 9.8166C4.91708 9.39715 4.95914 8.75712 4.60368 8.29188C4.24823 7.82665 3.59559 7.66754 3.04895 7.91283L1.88811 8.73824C0.717142 9.60069 0.0222525 10.9236 0 12.3328V24.5275C0.00769163 27.8405 2.82724 30.5244 6.30769 30.5317H12.7413C13.4364 30.5317 14 29.9952 14 29.3335C14 28.6718 13.4364 28.1353 12.7413 28.1353V28.1087Z" fill="#000"/>
<path d="M29.7988 12.4044C29.7844 10.9762 29.1231 9.62942 27.9967 8.73424L18.4909 1.24436C16.402 -0.414785 13.4263 -0.414785 11.3374 1.24436L8.3247 3.40568C7.75868 3.80733 7.62934 4.58632 8.03581 5.14562C8.44228 5.70492 9.23064 5.83272 9.79666 5.43108L12.8506 3.1746C14.0493 2.19947 15.7789 2.19947 16.9776 3.1746L26.4835 10.6645C27.0306 11.093 27.3538 11.7418 27.3639 12.4316V24.883C27.3639 26.91 25.701 28.5532 23.6496 28.5532H20.8295C20.5408 28.5532 20.3067 28.3219 20.3067 28.0367V22.4227C20.3068 20.6337 18.8431 19.1814 17.0327 19.1739H12.9057C12.0337 19.1739 11.1974 19.5161 10.5808 20.1254C9.96422 20.7347 9.61782 21.561 9.61782 22.4227V24.5704C9.61782 25.246 10.1721 25.7938 10.8559 25.7938C11.5397 25.7938 12.094 25.246 12.094 24.5704V22.4227C12.0903 22.2112 12.1728 22.0072 12.3228 21.8564C12.4728 21.7055 12.6779 21.6206 12.8919 21.6207H17.0189C17.4596 21.6207 17.8168 21.9736 17.8168 22.4091V28.0367C17.8244 29.6755 19.171 31 20.8295 31H23.5808C27.0073 31 29.7851 28.2553 29.7851 24.8694L29.7988 12.4044Z" fill="#000"/>
</svg>
