<svg width="20" height="22" viewBox="0 0 20 22" fill="none" xmlns="http://www.w3.org/2000/svg">
<path d="M18.9999 5.72998H18.9199C13.6299 5.19998 8.34992 4.99998 3.11992 5.52998L1.07992 5.72998C0.980679 5.74033 0.880375 5.73091 0.784801 5.70226C0.689227 5.67361 0.600279 5.62631 0.523099 5.56308C0.445919 5.49984 0.382038 5.42194 0.335147 5.33387C0.288257 5.2458 0.259288 5.14931 0.249916 5.04998C0.209916 4.62998 0.509916 4.26998 0.919916 4.22998L2.95992 4.02998C8.27992 3.48998 13.6699 3.69998 19.0699 4.22998C19.4799 4.26998 19.7799 4.63998 19.7399 5.04998C19.7248 5.23566 19.6402 5.40881 19.5031 5.53486C19.3659 5.66091 19.1862 5.73059 18.9999 5.72998Z" fill="#FF0B0B"/>
<path d="M6.4999 4.72C6.4599 4.72 6.4199 4.72 6.3699 4.71C6.17588 4.67504 6.00332 4.56538 5.88926 4.40458C5.77521 4.24378 5.72876 4.04467 5.7599 3.85L5.9799 2.54C6.1399 1.58 6.3599 0.25 8.6899 0.25H11.3099C13.6499 0.25 13.8699 1.63 14.0199 2.55L14.2399 3.85C14.3099 4.26 14.0299 4.65 13.6299 4.71C13.2199 4.78 12.8299 4.5 12.7699 4.1L12.5499 2.8C12.4099 1.93 12.3799 1.76 11.3199 1.76H8.6999C7.6399 1.76 7.6199 1.9 7.4699 2.79L7.2399 4.09C7.21141 4.26576 7.12132 4.42565 6.98574 4.54107C6.85017 4.6565 6.67795 4.71992 6.4999 4.72ZM13.2099 21.752H6.7899C3.2999 21.752 3.1599 19.822 3.0499 18.262L2.3999 8.192C2.3699 7.782 2.6899 7.422 3.0999 7.392C3.5199 7.372 3.8699 7.682 3.8999 8.092L4.5499 18.162C4.6599 19.682 4.6999 20.252 6.7899 20.252H13.2099C15.3099 20.252 15.3499 19.682 15.4499 18.162L16.0999 8.092C16.1299 7.682 16.4899 7.372 16.8999 7.392C17.3099 7.422 17.6299 7.772 17.5999 8.192L16.9499 18.262C16.8399 19.822 16.6999 21.752 13.2099 21.752Z" fill="#FF0B0B"/>
<path d="M11.66 16.25H8.33C7.92 16.25 7.58 15.91 7.58 15.5C7.58 15.09 7.92 14.75 8.33 14.75H11.66C12.07 14.75 12.41 15.09 12.41 15.5C12.41 15.91 12.07 16.25 11.66 16.25ZM12.5 12.25H7.5C7.09 12.25 6.75 11.91 6.75 11.5C6.75 11.09 7.09 10.75 7.5 10.75H12.5C12.91 10.75 13.25 11.09 13.25 11.5C13.25 11.91 12.91 12.25 12.5 12.25Z" fill="#FF0B0B"/>
</svg>
