<svg width="30" height="30" viewBox="0 0 20 20" fill="none" xmlns="http://www.w3.org/2000/svg">
<path d="M3.51855 0.993286H9.51855C10.3142 0.993286 11.0773 1.30936 11.6399 1.87197C12.2025 2.43458 12.5186 3.19764 12.5186 3.99329V7.99329H11.5186V3.99329C11.5186 3.46285 11.3078 2.95415 10.9328 2.57907C10.5577 2.204 10.049 1.99329 9.51855 1.99329H3.51855C2.98812 1.99329 2.47941 2.204 2.10434 2.57907C1.72927 2.95415 1.51855 3.46285 1.51855 3.99329V16.9933C1.51855 17.5237 1.72927 18.0324 2.10434 18.4075C2.47941 18.7826 2.98812 18.9933 3.51855 18.9933H9.51855C10.049 18.9933 10.5577 18.7826 10.9328 18.4075C11.3078 18.0324 11.5186 17.5237 11.5186 16.9933V12.9933H12.5186V16.9933C12.5186 17.7889 12.2025 18.552 11.6399 19.1146C11.0773 19.6772 10.3142 19.9933 9.51855 19.9933H3.51855C2.72291 19.9933 1.95984 19.6772 1.39723 19.1146C0.834625 18.552 0.518555 17.7889 0.518555 16.9933V3.99329C0.518555 3.19764 0.834625 2.43458 1.39723 1.87197C1.95984 1.30936 2.72291 0.993286 3.51855 0.993286ZM6.51855 9.99329H17.7686L14.5186 6.74329L15.1786 5.99329L19.6786 10.4933L15.1786 14.9933L14.5186 14.2433L17.7686 10.9933H6.51855V9.99329Z" fill="#000"/>
</svg>
