<svg width="30" height="32" viewBox="0 0 30 32" fill="none" xmlns="http://www.w3.org/2000/svg">
<path d="M2.02222 1.5C1.48608 1.50064 0.972058 1.73094 0.592945 2.14038C0.213832 2.54982 0.000588203 3.10496 0 3.684V10.116C0.00138192 10.4143 0.0599485 10.709 0.172009 10.9816C0.28407 11.2542 0.447197 11.4988 0.651111 11.7C0.447197 11.9012 0.28407 12.1458 0.172009 12.4184C0.0599485 12.691 0.00138192 12.9857 0 13.284V19.716C0.00138192 20.0143 0.0599485 20.309 0.172009 20.5816C0.28407 20.8542 0.447197 21.0988 0.651111 21.3C0.447197 21.5012 0.28407 21.7458 0.172009 22.0184C0.0599485 22.291 0.00138192 22.5857 0 22.884V29.316C0 30.5208 0.906667 31.5 2.02222 31.5H27.9778C29.0933 31.5 30 30.5208 30 29.316V22.884C29.9986 22.5857 29.9401 22.291 29.828 22.0184C29.7159 21.7458 29.5528 21.5012 29.3489 21.3C29.5528 21.0988 29.7159 20.8542 29.828 20.5816C29.9401 20.309 29.9986 20.0143 30 19.716V13.284C29.9986 12.9857 29.9401 12.691 29.828 12.4184C29.7159 12.1458 29.5528 11.9012 29.3489 11.7C29.5528 11.4988 29.7159 11.2542 29.828 10.9816C29.9401 10.709 29.9986 10.4143 30 10.116V3.684C29.9994 3.10496 29.7862 2.54982 29.4071 2.14038C29.0279 1.73094 28.5139 1.50064 27.9778 1.5H2.02222ZM2.02222 2.7H27.9778C28.2194 2.7 28.4512 2.80367 28.622 2.98821C28.7929 3.17274 28.8889 3.42303 28.8889 3.684V10.116C28.8889 10.377 28.7929 10.6273 28.622 10.8118C28.4512 10.9963 28.2194 11.1 27.9778 11.1H2.02222C1.78058 11.1 1.54884 10.9963 1.37797 10.8118C1.2071 10.6273 1.11111 10.377 1.11111 10.116V3.684C1.11111 3.42303 1.2071 3.17274 1.37797 2.98821C1.54884 2.80367 1.78058 2.7 2.02222 2.7ZM25 6.18C24.8229 6.18 24.653 6.25598 24.5278 6.39123C24.4026 6.52649 24.3322 6.70993 24.3322 6.9012C24.3322 7.09247 24.4026 7.27591 24.5278 7.41117C24.653 7.54642 24.8229 7.6224 25 7.6224C25.1774 7.6224 25.3475 7.54629 25.473 7.41081C25.5984 7.27534 25.6689 7.09159 25.6689 6.9C25.6689 6.70841 25.5984 6.52466 25.473 6.38919C25.3475 6.25371 25.1774 6.1776 25 6.1776V6.18ZM3.88889 6.3V7.5H12.7778V6.3H3.88889ZM25 6.42C25.1179 6.42 25.2309 6.47057 25.3143 6.56059C25.3976 6.65061 25.4444 6.7727 25.4444 6.9C25.4444 7.0273 25.3976 7.14939 25.3143 7.23941C25.2309 7.32943 25.1179 7.38 25 7.38C24.8821 7.38 24.7691 7.32943 24.6857 7.23941C24.6024 7.14939 24.5556 7.0273 24.5556 6.9C24.5556 6.7727 24.6024 6.65061 24.6857 6.56059C24.7691 6.47057 24.8821 6.42 25 6.42ZM2.02222 12.3H27.9778C28.0974 12.3 28.2159 12.3255 28.3264 12.3749C28.437 12.4244 28.5374 12.4968 28.622 12.5882C28.7066 12.6796 28.7737 12.7881 28.8195 12.9074C28.8653 13.0268 28.8889 13.1548 28.8889 13.284V19.716C28.8889 19.8452 28.8653 19.9732 28.8195 20.0926C28.7737 20.2119 28.7066 20.3204 28.622 20.4118C28.5374 20.5032 28.437 20.5756 28.3264 20.6251C28.2159 20.6745 28.0974 20.7 27.9778 20.7H2.02222C1.90257 20.7 1.7841 20.6745 1.67355 20.6251C1.56301 20.5756 1.46257 20.5032 1.37797 20.4118C1.29336 20.3204 1.22625 20.2119 1.18047 20.0926C1.13468 19.9732 1.11111 19.8452 1.11111 19.716V13.284C1.11111 13.1548 1.13468 13.0268 1.18047 12.9074C1.22625 12.7881 1.29336 12.6796 1.37797 12.5882C1.46257 12.4968 1.56301 12.4244 1.67355 12.3749C1.7841 12.3255 1.90257 12.3 2.02222 12.3ZM25.0467 15.78C24.8699 15.78 24.7003 15.8559 24.5753 15.9909C24.4502 16.1259 24.38 16.309 24.38 16.5C24.38 16.691 24.4502 16.8741 24.5753 17.0091C24.7003 17.1441 24.8699 17.22 25.0467 17.22C25.2235 17.22 25.393 17.1441 25.5181 17.0091C25.6431 16.8741 25.7133 16.691 25.7133 16.5C25.7133 16.309 25.6431 16.1259 25.5181 15.9909C25.393 15.8559 25.2235 15.78 25.0467 15.78ZM3.88889 15.9V17.1H12.7778V15.9H3.88889ZM25.0467 16.02C25.1085 16.0133 25.1709 16.0207 25.2299 16.0416C25.2889 16.0626 25.3432 16.0966 25.3892 16.1416C25.4353 16.1866 25.4721 16.2416 25.4973 16.3029C25.5225 16.3642 25.5355 16.4305 25.5355 16.4976C25.5355 16.5647 25.5225 16.631 25.4973 16.6923C25.4721 16.7536 25.4353 16.8086 25.3892 16.8536C25.3432 16.8986 25.2889 16.9326 25.2299 16.9536C25.1709 16.9745 25.1085 16.9819 25.0467 16.9752C24.9296 16.9752 24.8172 16.9253 24.734 16.8363C24.6507 16.7473 24.6034 16.6265 24.6022 16.5C24.6022 16.236 24.8022 16.02 25.0467 16.02ZM2.02444 21.9H27.9778C28.2194 21.9 28.4512 22.0037 28.622 22.1882C28.7929 22.3727 28.8889 22.623 28.8889 22.884V29.316C28.8889 29.4452 28.8653 29.5732 28.8195 29.6926C28.7737 29.8119 28.7066 29.9204 28.622 30.0118C28.5374 30.1032 28.437 30.1756 28.3264 30.2251C28.2159 30.2745 28.0974 30.3 27.9778 30.3H2.02222C1.90257 30.3 1.7841 30.2745 1.67355 30.2251C1.56301 30.1756 1.46257 30.1032 1.37797 30.0118C1.29336 29.9204 1.22625 29.8119 1.18047 29.6926C1.13468 29.5732 1.11111 29.4452 1.11111 29.316V22.884C1.11111 22.623 1.2071 22.3727 1.37797 22.1882C1.54884 22.0037 1.7828 21.9 2.02444 21.9ZM24.9867 25.38C24.8096 25.38 24.6397 25.456 24.5145 25.5912C24.3892 25.7265 24.3189 25.9099 24.3189 26.1012C24.3189 26.2925 24.3892 26.4759 24.5145 26.6112C24.6397 26.7464 24.8096 26.8224 24.9867 26.8224C25.1641 26.8224 25.3342 26.7463 25.4596 26.6108C25.5851 26.4753 25.6556 26.2916 25.6556 26.1C25.6556 25.9084 25.5851 25.7247 25.4596 25.5892C25.3342 25.4537 25.1641 25.38 24.9867 25.38ZM3.88889 25.5V26.7H12.7778V25.5H3.88889ZM24.9867 25.62C25.1045 25.62 25.2176 25.6706 25.3009 25.7606C25.3843 25.8506 25.4311 25.9727 25.4311 26.1C25.4311 26.2273 25.3843 26.3494 25.3009 26.4394C25.2176 26.5294 25.1045 26.58 24.9867 26.58C24.8688 26.58 24.7557 26.5294 24.6724 26.4394C24.5891 26.3494 24.5422 26.2273 24.5422 26.1C24.5422 25.9727 24.5891 25.8506 24.6724 25.7606C24.7557 25.6706 24.8688 25.62 24.9867 25.62Z" fill="#464646"/>
</svg>
