<svg width="26" height="26" viewBox="0 0 26 26" fill="none" xmlns="http://www.w3.org/2000/svg">
<path d="M25 25C25 20.356 19.6217 16.6 13 16.6C6.37835 16.6 1 20.356 1 25M13 13C14.8525 13 16.6291 12.3679 17.939 11.2426C19.249 10.1174 19.9849 8.5913 19.9849 7C19.9849 5.4087 19.249 3.88258 17.939 2.75736C16.6291 1.63214 14.8525 1 13 1C11.1475 1 9.37087 1.63214 8.06095 2.75736C6.75104 3.88258 6.01513 5.4087 6.01513 7C6.01513 8.5913 6.75104 10.1174 8.06095 11.2426C9.37087 12.3679 11.1475 13 13 13Z" stroke="black" stroke-width="1.5" stroke-linecap="round" stroke-linejoin="round"/>
</svg>
