<svg width="22" height="22" viewBox="0 0 22 22" fill="none" xmlns="http://www.w3.org/2000/svg">
<path d="M21.0345 21L19.0345 19M10.5345 20C11.7821 20 13.0174 19.7543 14.17 19.2769C15.3226 18.7994 16.3699 18.0997 17.2521 17.2175C18.1342 16.3354 18.834 15.2881 19.3114 14.1355C19.7888 12.9829 20.0345 11.7476 20.0345 10.5C20.0345 9.25244 19.7888 8.0171 19.3114 6.86451C18.834 5.71191 18.1342 4.66464 17.2521 3.78249C16.3699 2.90033 15.3226 2.20056 14.17 1.72314C13.0174 1.24572 11.7821 1 10.5345 1C8.01499 1 5.59863 2.00089 3.81703 3.78249C2.03544 5.56408 1.03455 7.98044 1.03455 10.5C1.03455 13.0196 2.03544 15.4359 3.81703 17.2175C5.59863 18.9991 8.01499 20 10.5345 20Z" stroke="#09A3BE" stroke-width="1.5" stroke-linecap="round" stroke-linejoin="round"/>
</svg>
