<svg width="35" height="35" viewBox="0 0 30 30" fill="none" xmlns="http://www.w3.org/2000/svg">
<path d="M18.75 28.4363H11.25C9.59998 28.4363 8.22498 28.2738 7.06248 27.9238C6.85691 27.8605 6.67858 27.73 6.55615 27.5531C6.43373 27.3763 6.37432 27.1634 6.38748 26.9488C6.69998 23.2113 10.4875 20.2738 15 20.2738C19.5125 20.2738 23.2875 23.1988 23.6125 26.9488C23.65 27.3988 23.375 27.7988 22.9375 27.9238C21.775 28.2738 20.4 28.4363 18.75 28.4363ZM8.39998 26.3238C9.22498 26.4863 10.1625 26.5613 11.25 26.5613H18.75C19.8375 26.5613 20.775 26.4863 21.6 26.3238C20.9375 23.9238 18.2 22.1488 15 22.1488C11.8 22.1488 9.06248 23.9238 8.39998 26.3238Z" fill="white"/>
<path d="M18.75 2.5H11.25C5 2.5 2.5 5 2.5 11.25V18.75C2.5 23.475 3.925 26.0625 7.325 27.025C7.6 23.775 10.9375 21.2125 15 21.2125C19.0625 21.2125 22.4 23.775 22.675 27.025C26.075 26.0625 27.5 23.475 27.5 18.75V11.25C27.5 5 25 2.5 18.75 2.5ZM15 17.7125C12.525 17.7125 10.525 15.7 10.525 13.225C10.525 10.75 12.525 8.75 15 8.75C17.475 8.75 19.475 10.75 19.475 13.225C19.475 15.7 17.475 17.7125 15 17.7125Z" stroke="white" stroke-width="2" stroke-linecap="round" stroke-linejoin="round"/>
<path d="M15.0025 18.65C13.5659 18.6467 12.1892 18.0737 11.1746 17.0566C10.1599 16.0396 9.59002 14.6616 9.59003 13.225C9.59003 10.2375 12.015 7.8125 15.0025 7.8125C17.99 7.8125 20.415 10.2375 20.415 13.225C20.415 14.6616 19.8452 16.0396 18.8305 17.0566C17.8158 18.0737 16.4392 18.6467 15.0025 18.65ZM15.0025 9.6875C14.079 9.71203 13.2015 10.0962 12.5569 10.7581C11.9123 11.42 11.5517 12.3074 11.5517 13.2312C11.5517 14.1551 11.9123 15.0425 12.5569 15.7044C13.2015 16.3663 14.079 16.7505 15.0025 16.775C15.9261 16.7505 16.8036 16.3663 17.4482 15.7044C18.0927 15.0425 18.4534 14.1551 18.4534 13.2312C18.4534 12.3074 18.0927 11.42 17.4482 10.7581C16.8036 10.0962 15.9261 9.71203 15.0025 9.6875Z" fill="white"/>
</svg>
