<svg width="22" height="22" viewBox="0 0 22 22" fill="none" xmlns="http://www.w3.org/2000/svg">
<path d="M13.53 9.04796L8.46999 14.108C7.79899 13.437 7.42203 12.5269 7.42203 11.578C7.42203 11.1081 7.51457 10.6428 7.69438 10.2087C7.87419 9.77464 8.13774 9.3802 8.46999 9.04796C8.80223 8.71572 9.19666 8.45217 9.63076 8.27236C10.0649 8.09255 10.5301 8 11 8C11.9489 8 12.859 8.37696 13.53 9.04796Z" stroke="black" stroke-width="1.5" stroke-linecap="round" stroke-linejoin="round"/>
<path d="M16.82 5.04C15.07 3.72 13.07 3 11 3C7.47 3 4.18 5.08 1.89 8.68C0.989996 10.09 0.989996 12.46 1.89 13.87C2.68 15.11 3.6 16.18 4.6 17.04M7.42 18.8C8.56 19.28 9.77 19.54 11 19.54C14.53 19.54 17.82 17.46 20.11 13.86C21.01 12.45 21.01 10.08 20.11 8.67C19.78 8.15 19.42 7.66 19.05 7.2" stroke="black" stroke-width="1.5" stroke-linecap="round" stroke-linejoin="round"/>
<path d="M14.51 11.7C14.3745 12.3976 14.0337 13.0387 13.5312 13.5412C13.0287 14.0437 12.3876 14.3845 11.69 14.52M8.47 13.53L1 21M21 1L13.53 8.47" stroke="black" stroke-width="1.5" stroke-linecap="round" stroke-linejoin="round"/>
</svg>
