<svg width="29" height="32" viewBox="0 0 29 32" fill="none" xmlns="http://www.w3.org/2000/svg">
<path d="M12.2979 1.75203L5.02082 4.47911C3.34373 5.10619 1.9729 7.08953 1.9729 8.88328V19.7187C1.9729 21.4395 3.1104 23.6999 4.49582 24.7354L10.7666 29.4166C12.8229 30.9624 16.2062 30.9624 18.2625 29.4166L24.5333 24.7354C25.9187 23.6999 27.0562 21.4395 27.0562 19.7187V8.88328C27.0562 7.08953 25.6854 5.10619 24.0083 4.47911L16.7312 1.75203C15.4916 1.29994 13.5083 1.29994 12.2979 1.75203Z" stroke="#09A3BE" stroke-width="2" stroke-linecap="round" stroke-linejoin="round"/>
<path d="M14.4999 14.425H14.3104C12.9395 14.3812 11.8458 13.2437 11.8458 11.8583C11.8458 10.4437 12.9979 9.29163 14.4124 9.29163C15.827 9.29163 16.9791 10.4437 16.9791 11.8583C16.9645 13.2583 15.8708 14.3812 14.4999 14.425ZM11.5979 18.5083C10.1979 19.4416 10.1979 20.9729 11.5979 21.9062C13.1874 22.9708 15.7979 22.9708 17.3874 21.9062C18.7874 20.9729 18.7874 19.4416 17.3874 18.5083C15.8124 17.4437 13.202 17.4437 11.5979 18.5083Z" stroke="#09A3BE" stroke-width="2" stroke-linecap="round" stroke-linejoin="round"/>
</svg>
