<svg width="36" height="36" viewBox="0 0 36 36" fill="none" xmlns="http://www.w3.org/2000/svg">
<path d="M5.4729 32.5833C5.4729 26.9396 11.0875 22.375 18 22.375C19.4 22.375 20.7562 22.5646 22.025 22.9146M18 18C19.9339 18 21.7885 17.2318 23.156 15.8643C24.5234 14.4969 25.2916 12.6422 25.2916 10.7083C25.2916 8.77447 24.5234 6.9198 23.156 5.55235C21.7885 4.1849 19.9339 3.41667 18 3.41667C16.0661 3.41667 14.2114 4.1849 12.844 5.55235C11.4765 6.9198 10.7083 8.77447 10.7083 10.7083C10.7083 12.6422 11.4765 14.4969 12.844 15.8643C14.2114 17.2318 16.0661 18 18 18Z" stroke="#09A3BE" stroke-width="2" stroke-linecap="round" stroke-linejoin="round"/>
<path d="M32.5833 26.75C32.5833 27.8438 32.2771 28.8792 31.7375 29.7542C31.4312 30.2792 31.0375 30.7458 30.5854 31.125C29.5646 32.0438 28.2229 32.5833 26.75 32.5833C25.7445 32.5854 24.7559 32.3256 23.8814 31.8296C23.0068 31.3335 22.2766 30.6182 21.7625 29.7542C21.2073 28.8506 20.9145 27.8105 20.9166 26.75C20.9166 24.9125 21.7625 23.2646 23.1041 22.2C23.9616 21.5127 24.9959 21.0817 26.0877 20.9566C27.1794 20.8316 28.2844 21.0175 29.2751 21.493C30.2658 21.9686 31.102 22.7144 31.6873 23.6445C32.2726 24.5745 32.5832 25.6511 32.5833 26.75Z" stroke="#09A3BE" stroke-width="2" stroke-miterlimit="10" stroke-linecap="round" stroke-linejoin="round"/>
<path d="M24.475 26.75L25.9187 28.1937L29.025 25.3208" stroke="#09A3BE" stroke-width="2" stroke-linecap="round" stroke-linejoin="round"/>
</svg>
