<svg width="30" height="30" viewBox="0 0 30 30" fill="none" xmlns="http://www.w3.org/2000/svg">
<path d="M11.4351 9.36011C10.7351 9.36011 10.1851 9.92261 10.1851 10.6101C10.1851 11.2976 10.7476 11.8601 11.4351 11.8601C12.1226 11.8601 12.6851 11.2976 12.6851 10.6101C12.6851 9.92261 12.1226 9.36011 11.4351 9.36011Z" fill="white"/>
<path d="M26.825 6.3C25.775 3.8625 23.4625 2.5 20.2375 2.5H9.7625C5.75 2.5 2.5 5.75 2.5 9.7625V20.2375C2.5 23.4625 3.8625 25.775 6.3 26.825C6.5375 26.925 6.8125 26.8625 6.9875 26.6875L26.6875 6.9875C26.875 6.8 26.9375 6.525 26.825 6.3ZM13.1625 15.3C12.675 15.775 12.0375 16 11.4 16C10.7625 16 10.125 15.7625 9.6375 15.3C8.3625 14.1 6.9625 12.1875 7.5 9.9125C7.975 7.85 9.8 6.925 11.4 6.925C13 6.925 14.825 7.85 15.3 9.925C15.825 12.1875 14.425 14.1 13.1625 15.3ZM24.3363 25.6625C24.6112 25.9375 24.5737 26.3875 24.2362 26.575C23.1362 27.1875 21.7987 27.5 20.2362 27.5H9.76125C9.39875 27.5 9.24875 27.075 9.49875 26.825L17.0487 19.275C17.2987 19.025 17.6862 19.025 17.9362 19.275L24.3363 25.6625ZM27.5025 9.76125V20.2362C27.5025 21.7987 27.19 23.1488 26.5775 24.2362C26.39 24.5737 25.94 24.5987 25.665 24.3363L19.265 17.9362C19.015 17.6862 19.015 17.2987 19.265 17.0487L26.815 9.49875C27.0775 9.24875 27.5025 9.39875 27.5025 9.76125Z" fill="white"/>
</svg>
