<svg width="26" height="31" viewBox="0 0 26 31" fill="none" xmlns="http://www.w3.org/2000/svg">
<path d="M9.47691 27.8925C10.1759 28.7698 11.2024 29.3376 12.3291 29.4702C13.4559 29.6028 14.59 29.2893 15.4806 28.599C15.7545 28.3948 16.0009 28.1574 16.214 27.8925M1.00116 18.002V17.6954C1.04613 16.7883 1.33684 15.9095 1.8433 15.1494C2.6863 14.2364 3.26338 13.1176 3.514 11.9104C3.514 10.9773 3.514 10.0309 3.5955 9.09784C4.01657 4.60578 8.45819 1.5 12.8455 1.5H12.9541C17.3414 1.5 21.7831 4.60578 22.2177 9.09784C22.2992 10.0309 22.2177 10.9773 22.2856 11.9104C22.5396 13.1204 23.1161 14.2427 23.9563 15.1628C24.4666 15.9161 24.7577 16.7917 24.7985 17.6954V17.9886C24.8288 19.2073 24.4091 20.3955 23.6168 21.3344C22.5697 22.4321 21.149 23.115 19.6234 23.2538C15.1498 23.7337 10.6362 23.7337 6.16267 23.2538C4.6388 23.109 3.22006 22.4271 2.16929 21.3344C1.3892 20.3948 0.975137 19.2136 1.00116 18.002Z" stroke="#464646" stroke-width="2" stroke-linecap="round" stroke-linejoin="round"/>
</svg>
