<svg width="16" height="16" viewBox="0 0 44 44" fill="none" xmlns="http://www.w3.org/2000/svg">
<path d="M1.39061 1.3915L1.3915 1.39061C1.63534 1.14615 1.92501 0.952198 2.24392 0.819864C2.56283 0.687531 2.90472 0.619415 3.25 0.619415C3.59528 0.619415 3.93717 0.687531 4.25608 0.819864C4.57499 0.952198 4.86466 1.14615 5.1085 1.39061L5.10888 1.39099L21.6464 17.9347L22 18.2885L22.3536 17.9347L38.8911 1.39105C38.8911 1.39103 38.8911 1.39101 38.8911 1.39099C39.1352 1.1469 39.425 0.953273 39.7439 0.821168C40.0629 0.689051 40.4048 0.621051 40.75 0.621051C41.0952 0.621051 41.4371 0.689051 41.7561 0.821168C42.075 0.953285 42.3648 1.14693 42.6089 1.39105C42.8531 1.63517 43.0467 1.92499 43.1788 2.24394C43.3109 2.5629 43.3789 2.90476 43.3789 3.25C43.3789 3.59524 43.3109 3.9371 43.1788 4.25606C43.0467 4.57499 42.8531 4.86477 42.609 5.10888C42.609 5.1089 42.609 5.10893 42.6089 5.10895L26.0653 21.6464L25.7115 22L26.0653 22.3536L42.6089 38.8911C42.609 38.8911 42.609 38.8911 42.609 38.8911C42.8531 39.1352 43.0467 39.425 43.1788 39.7439C43.3109 40.0629 43.3789 40.4048 43.3789 40.75C43.3789 41.0952 43.3109 41.4371 43.1788 41.7561C43.0467 42.075 42.8531 42.3648 42.6089 42.6089C42.3648 42.8531 42.075 43.0467 41.7561 43.1788C41.4371 43.3109 41.0952 43.3789 40.75 43.3789C40.4048 43.3789 40.0629 43.3109 39.7439 43.1788C39.425 43.0467 39.1352 42.8531 38.8911 42.609C38.8911 42.609 38.8911 42.609 38.8911 42.6089L22.3536 26.0653L22 25.7115L21.6464 26.0653L5.10895 42.6089C5.10893 42.609 5.1089 42.609 5.10888 42.609C4.86477 42.8531 4.57499 43.0467 4.25606 43.1788C3.9371 43.3109 3.59524 43.3789 3.25 43.3789C2.90476 43.3789 2.5629 43.3109 2.24394 43.1788C1.92499 43.0467 1.63517 42.8531 1.39105 42.6089C1.14693 42.3648 0.953285 42.075 0.821168 41.7561C0.689051 41.4371 0.621051 41.0952 0.621051 40.75C0.621051 40.4048 0.689051 40.0629 0.821168 39.7439C0.953273 39.425 1.1469 39.1352 1.39099 38.8911C1.39101 38.8911 1.39103 38.8911 1.39105 38.8911L17.9347 22.3536L18.2885 22L17.9347 21.6464L1.39099 5.10888L1.39061 5.1085C1.14615 4.86466 0.952198 4.57499 0.819864 4.25608C0.687531 3.93717 0.619415 3.59528 0.619415 3.25C0.619415 2.90472 0.687531 2.56283 0.819864 2.24392C0.952198 1.92501 1.14615 1.63534 1.39061 1.3915Z" fill="black" stroke="black"/>
</svg>
