<svg width="21" height="22" viewBox="0 0 21 22" fill="none" xmlns="http://www.w3.org/2000/svg">
<path d="M10 11C11.3261 11 12.5979 10.4732 13.5355 9.53553C14.4732 8.59785 15 7.32608 15 6C15 4.67392 14.4732 3.40215 13.5355 2.46447C12.5979 1.52678 11.3261 1 10 1C8.67392 1 7.40215 1.52678 6.46447 2.46447C5.52678 3.40215 5 4.67392 5 6C5 7.32608 5.52678 8.59785 6.46447 9.53553C7.40215 10.4732 8.67392 11 10 11Z" stroke="#09A3BE" stroke-width="1.5" stroke-linecap="round" stroke-linejoin="round"/>
<path d="M17.21 14.74L13.67 18.28C13.53 18.42 13.4 18.68 13.37 18.87L13.18 20.22C13.11 20.71 13.45 21.05 13.94 20.98L15.29 20.79C15.48 20.76 15.75 20.63 15.88 20.49L19.42 16.95C20.03 16.34 20.32 15.63 19.42 14.73C18.53 13.84 17.82 14.13 17.21 14.74Z" stroke="#09A3BE" stroke-width="1.5" stroke-miterlimit="10" stroke-linecap="round" stroke-linejoin="round"/>
<path d="M16.7 15.25C17 16.33 17.84 17.17 18.92 17.47" stroke="#09A3BE" stroke-width="1.5" stroke-miterlimit="10" stroke-linecap="round" stroke-linejoin="round"/>
<path d="M1.40991 21C1.40991 17.13 5.25991 14 9.99991 14C11.0399 14 12.0399 14.15 12.9699 14.43" stroke="#09A3BE" stroke-width="1.5" stroke-linecap="round" stroke-linejoin="round"/>
</svg>
