<svg width="22" height="19" viewBox="0 0 22 19" fill="none" xmlns="http://www.w3.org/2000/svg">
<path d="M14.58 8.58C14.58 10.56 12.98 12.16 11 12.16C9.01998 12.16 7.41998 10.56 7.41998 8.58C7.41998 6.6 9.01998 5 11 5C12.98 5 14.58 6.6 14.58 8.58Z" stroke="black" stroke-width="1.5" stroke-linecap="round" stroke-linejoin="round"/>
<path d="M11 17.55C14.53 17.55 17.82 15.47 20.11 11.87C21.01 10.46 21.01 8.09 20.11 6.68C17.82 3.08 14.53 1 11 1C7.47003 1 4.18003 3.08 1.89003 6.68C0.990027 8.09 0.990027 10.46 1.89003 11.87C4.18003 15.47 7.47003 17.55 11 17.55Z" stroke="black" stroke-width="1.5" stroke-linecap="round" stroke-linejoin="round"/>
</svg>
