<svg width="22" height="21" viewBox="0 0 22 21" fill="none" xmlns="http://www.w3.org/2000/svg">
<path d="M2.99876 6.17H1.99876M19.9988 6.17H18.9988M10.9988 1.17V3.17M9.49876 3.17H12.4988M4.99876 13.17H7.99876M13.9988 13.17H16.9988M14.5088 1H7.48876C4.99876 1 4.44876 2.24 4.12876 3.76L2.99876 9.17H18.9988L17.8688 3.76C17.5488 2.24 16.9988 1 14.5088 1ZM20.9888 17.99C21.0988 19.16 20.1588 20.17 18.9588 20.17H17.0788C15.9988 20.17 15.8488 19.71 15.6588 19.14L15.4588 18.54C15.1788 17.72 14.9988 17.17 13.5588 17.17H8.43876C6.99876 17.17 6.78876 17.79 6.53876 18.54L6.33876 19.14C6.14876 19.71 5.99876 20.17 4.91876 20.17H3.03876C1.83876 20.17 0.89876 19.16 1.00876 17.99L1.56876 11.9C1.70876 10.4 1.99876 9.17 4.61876 9.17H17.3788C19.9988 9.17 20.2888 10.4 20.4288 11.9L20.9888 17.99Z" stroke="#000" stroke-width="1.5" stroke-linecap="round" stroke-linejoin="round"/>
</svg>
