<svg width="30" height="32" viewBox="0 0 30 32" fill="none" xmlns="http://www.w3.org/2000/svg">
<path d="M1.4729 30.5833C1.4729 24.9395 7.08748 20.375 14 20.375C15.4 20.375 16.7562 20.5645 18.025 20.9145M14 16C15.9339 16 17.7885 15.2317 19.156 13.8643C20.5234 12.4968 21.2916 10.6422 21.2916 8.70829C21.2916 6.77442 20.5234 4.91976 19.156 3.55231C17.7885 2.18485 15.9339 1.41663 14 1.41663C12.0661 1.41663 10.2114 2.18485 8.844 3.55231C7.47654 4.91976 6.70832 6.77442 6.70832 8.70829C6.70832 10.6422 7.47654 12.4968 8.844 13.8643C10.2114 15.2317 12.0661 16 14 16Z" stroke="#09A3BE" stroke-width="2" stroke-linecap="round" stroke-linejoin="round"/>
<path d="M28.5834 24.75C28.5834 25.8437 28.2772 26.8791 27.7376 27.7541C27.4313 28.2791 27.0376 28.7458 26.5855 29.125C25.5647 30.0437 24.223 30.5833 22.7501 30.5833C21.7447 30.5854 20.756 30.3256 19.8815 29.8295C19.007 29.3335 18.2767 28.6182 17.7626 27.7541C17.2075 26.8506 16.9146 25.8104 16.9168 24.75C16.9168 22.9125 17.7626 21.2646 19.1043 20.2C19.9618 19.5127 20.996 19.0817 22.0878 18.9566C23.1796 18.8315 24.2845 19.0175 25.2752 19.493C26.2659 19.9686 27.1021 20.7143 27.6874 21.6444C28.2727 22.5745 28.5833 23.651 28.5834 24.75Z" stroke="#09A3BE" stroke-width="2" stroke-miterlimit="10" stroke-linecap="round" stroke-linejoin="round"/>
<path d="M20.4751 24.75L21.9188 26.1937L25.0251 23.3208" stroke="#09A3BE" stroke-width="2" stroke-linecap="round" stroke-linejoin="round"/>
</svg>
