<svg width="35" height="36" viewBox="0 0 35 36" fill="none" xmlns="http://www.w3.org/2000/svg">
<path d="M15.2979 3.75209L8.02082 6.47917C6.34373 7.10625 4.9729 9.08959 4.9729 10.8833V21.7188C4.9729 23.4396 6.1104 25.7 7.49582 26.7354L13.7666 31.4167C15.8229 32.9625 19.2062 32.9625 21.2625 31.4167L27.5333 26.7354C28.9187 25.7 30.0562 23.4396 30.0562 21.7188V10.8833C30.0562 9.08959 28.6854 7.10625 27.0083 6.47917L19.7312 3.75209C18.4916 3.3 16.5083 3.3 15.2979 3.75209Z" stroke="#000" stroke-width="2" stroke-linecap="round" stroke-linejoin="round"/>
<path d="M17.5 16.425H17.3104C15.9396 16.3813 14.8458 15.2438 14.8458 13.8583C14.8458 12.4438 15.9979 11.2917 17.4125 11.2917C18.8271 11.2917 19.9792 12.4438 19.9792 13.8583C19.9646 15.2583 18.8708 16.3813 17.5 16.425ZM14.5979 20.5083C13.1979 21.4417 13.1979 22.9729 14.5979 23.9063C16.1875 24.9708 18.7979 24.9708 20.3875 23.9063C21.7875 22.9729 21.7875 21.4417 20.3875 20.5083C18.8125 19.4438 16.2021 19.4438 14.5979 20.5083Z" stroke="#000" stroke-width="2" stroke-linecap="round" stroke-linejoin="round"/>
</svg>
