<svg width="33" height="32" viewBox="0 0 33 32" fill="none" xmlns="http://www.w3.org/2000/svg">
<path d="M1.91675 30.5833H31.0834M23.7917 1.41663H9.20841C4.83341 1.41663 3.37508 4.02704 3.37508 7.24996V30.5833H29.6251V7.24996C29.6251 4.02704 28.1667 1.41663 23.7917 1.41663Z" stroke="#09A3BE" stroke-width="2" stroke-miterlimit="10" stroke-linecap="round" stroke-linejoin="round"/>
<path d="M16.4999 7.25V14.5417M12.8541 10.8958H20.1458M19.5041 20.375H13.4812C12.7374 20.375 12.1104 20.9875 12.1104 21.7458V30.5833H20.8604V21.7458C20.8635 21.5662 20.8306 21.3877 20.7638 21.221C20.6969 21.0542 20.5973 20.9025 20.471 20.7748C20.3446 20.647 20.194 20.5459 20.0279 20.4772C19.8619 20.4086 19.6838 20.3738 19.5041 20.375Z" stroke="#09A3BE" stroke-width="2" stroke-miterlimit="10" stroke-linecap="round" stroke-linejoin="round"/>
</svg>
