<svg width="48" height="42" viewBox="0 0 48 42" fill="none" xmlns="http://www.w3.org/2000/svg">
<path d="M32 15.7325V35.6125C32 38.15 29.92 39.2175 27.38 37.9925L19.52 34.16C18.68 33.7575 17.32 33.7575 16.48 34.16L8.62 37.9925C6.08 39.2175 4 38.15 4 35.6125V15.7325C4 12.74 6.8 10.29 10.22 10.29H25.78C29.2 10.29 32 12.74 32 15.7325Z" stroke="#000" stroke-width="1.5" stroke-linecap="round" stroke-linejoin="round"/>
<path d="M14 21H22M18 24.5V17.5M44 8.9425V28.8225C44 31.36 41.92 32.4275 39.38 31.2025L32 27.5975V15.7325C32 12.74 29.2 10.29 25.78 10.29H16V8.9425C16 5.95 18.8 3.5 22.22 3.5H37.78C41.2 3.5 44 5.95 44 8.9425Z" stroke="#000" stroke-width="1.5" stroke-linecap="round" stroke-linejoin="round"/>
</svg>
