<svg width="35" height="36" viewBox="0 0 35 36" fill="none" xmlns="http://www.w3.org/2000/svg">
<path d="M2.91669 32.5833H32.0834M24.7917 3.41666H10.2084C5.83335 3.41666 4.37502 6.02707 4.37502 9.24999V32.5833H30.625V9.24999C30.625 6.02707 29.1667 3.41666 24.7917 3.41666Z" stroke="#000" stroke-width="2" stroke-miterlimit="10" stroke-linecap="round" stroke-linejoin="round"/>
<path d="M17.5 9.25V16.5417M13.8542 12.8958H21.1458M20.5042 22.375H14.4812C13.7375 22.375 13.1104 22.9875 13.1104 23.7458V32.5833H21.8604V23.7458C21.8635 23.5662 21.8307 23.3877 21.7638 23.221C21.6969 23.0542 21.5974 22.9025 21.471 22.7748C21.3447 22.647 21.194 22.5459 21.028 22.4772C20.8619 22.4086 20.6838 22.3738 20.5042 22.375Z" stroke="#000" stroke-width="2" stroke-miterlimit="10" stroke-linecap="round" stroke-linejoin="round"/>
</svg>
